Coordinates
nRows=6
nColumns=38

# SIMM Motion File Header:
name Coordinates
datacolumns 38
datarows 6
otherdata 1
range 1.48330000000000010000 1.48830000000000000000

Units are S.I. units (second, meters, Newtons, ...)
Angles are in degrees.

endheader
time	pelvis_tilt	pelvis_list	pelvis_rotation	pelvis_tx	pelvis_ty	pelvis_tz	hip_flexion_r	hip_adduction_r	hip_rotation_r	knee_angle_r	ankle_angle_r	subtalar_angle_r	mtp_angle_r	hip_flexion_l	hip_adduction_l	hip_rotation_l	knee_angle_l	ankle_angle_l	subtalar_angle_l	mtp_angle_l	lumbar_extension	lumbar_bending	lumbar_rotation	arm_flex_r	arm_add_r	arm_rot_r	elbow_flex_r	pro_sup_r	wrist_flex_r	wrist_dev_r	arm_flex_l	arm_add_l	arm_rot_l	elbow_flex_l	pro_sup_l	wrist_flex_l	wrist_dev_l
      1.48330000000000010000	     -8.53575327628134950000	     -5.72157800295286820000	     -7.46692609223353100000	      1.16288102525501590000	      1.00310647320020570000	     -0.32391617188520633000	     39.41004555590199500000	     12.49933728211106000000	     -4.93807486749266380000	    -18.29853481867761600000	    -17.42463261036456500000	      0.00000000000000000000	      0.00000000000000000000	     -9.15668826709393000000	      1.95088595903879660000	     -5.08648744455028810000	    -73.58318833046543300000	    -34.16386756628571700000	      0.00000000000000000000	      0.00000000000000000000	     -3.16862165546926500000	      8.62010537719289970000	    -10.94589750985070600000	    -49.71463410915522000000	    -11.02174437859056300000	    -22.28442336529115400000	     70.02307385606455600000	     59.45596396973645200000	      0.00000000000000000000	      0.00000000000000000000	    -18.13521130658308400000	    -20.29618453815133700000	      4.96832433177914010000	    138.79027548937950000000	     85.21531527315934800000	      0.00000000000000000000	      0.00000000000000000000
      1.48430000000000000000	     -8.43251103177143690000	     -5.77747697095618750000	     -7.49412674957049860000	      1.16288229417619910000	      1.00265619265985270000	     -0.32391765721569959000	     39.22350943897035300000	     12.56955511689226200000	     -4.97109925018562480000	    -18.43372735289336000000	    -17.51203935261910200000	      0.00000000000000000098	      0.00000000000000000311	     -9.04020995898597060000	      1.81210296486639870000	     -5.26971519412788150000	    -74.36809778029679300000	    -34.01409771313017000000	      0.00000000000000000120	      0.00000000000000000130	     -3.31229539589023680000	      8.68672326180880280000	    -10.81488465025976900000	    -49.62873588298505500000	    -10.96239437967369000000	    -22.22624269231398800000	     70.01941215589471300000	     59.46365302645302400000	      0.00000000000000000049	      0.00000000000000000077	    -18.30311230805630600000	    -20.22862773522491200000	      4.96007669690645690000	    138.34356523790163000000	     85.08128191720021500000	     -0.00000000000000000004	      0.00000000000000000257
      1.48530000000000010000	     -8.33027933084107270000	     -5.83310400234036130000	     -7.52183068858381800000	      1.16288265936747330000	      1.00219544278673340000	     -0.32391780234290241000	     39.03929754904241600000	     12.64036417541686500000	     -4.99484943099686340000	    -18.57956407858021200000	    -17.59183955969446000000	      0.00000000000000000743	      0.00000000000000000355	     -8.92223838499521630000	      1.67291990186525760000	     -5.44854383272994540000	    -75.15262314899978000000	    -33.85496135318355500000	      0.00000000000000000460	      0.00000000000000000446	     -3.45464425868729520000	      8.75310035086554090000	    -10.68196530833946400000	    -49.54052787538037000000	    -10.90383637833416100000	    -22.16716983209144200000	     70.01412384551001400000	     59.47814521275000000000	      0.00000000000000000132	      0.00000000000000000276	    -18.46982125427810600000	    -20.16138345581637400000	      4.95094346509934620000	    137.89239027730713000000	     84.95913365533505200000	      0.00000000000000000148	      0.00000000000000000689
      1.48630000000000000000	     -8.22910537417129360000	     -5.88847519849493310000	     -7.55009866506308840000	      1.16288200689506450000	      1.00172430535204640000	     -0.32391677613560405000	     38.85745710076033500000	     12.71162377977417200000	     -5.01084951139713390000	    -18.73583686469355000000	    -17.66875224233880100000	      0.00000000000000001866	      0.00000000000000000335	     -8.80269019121914730000	      1.53334785726179580000	     -5.62314809661444850000	    -75.93678518432958000000	    -33.68650128703704600000	      0.00000000000000000719	      0.00000000000000000937	     -3.59566105458631080000	      8.81929191997038230000	    -10.54713312948025100000	    -49.44996065600462700000	    -10.84617617348539500000	    -22.10714122786335200000	     70.00724176081018900000	     59.49935040722657900000	      0.00000000000000000220	      0.00000000000000000662	    -18.63535673385437300000	    -20.09442938446334600000	      4.94094470093561360000	    137.43687843313944000000	     84.84913966768679900000	      0.00000000000000000526	      0.00000000000000001300
      1.48730000000000010000	     -8.12860912708585740000	     -5.94366077210685080000	     -7.57875440433718240000	      1.16288052304918280000	      1.00124328715280010000	     -0.32391478001940471000	     38.67743871863162000000	     12.78335991817273200000	     -5.01878705660980450000	    -18.90230229094701300000	    -17.74071888733681100000	      0.00000000000000002993	      0.00000000000000000602	     -8.68196979872510430000	      1.39333526352482220000	     -5.79354715892286180000	    -76.72053778414277800000	    -33.50879317285728100000	      0.00000000000000000753	      0.00000000000000000992	     -3.73576683220877340000	      8.88532854895278310000	    -10.41057049341668200000	    -49.35696262013368600000	    -10.78947302171226900000	    -22.04607073355202100000	     69.99884215054785800000	     59.52716137953244400000	      0.00000000000000000342	      0.00000000000000000972	    -18.79972936465322400000	    -20.02783521924580500000	      4.93006867620942480000	    136.97723761782802000000	     84.75151814472748400000	      0.00000000000000000702	      0.00000000000000001763
      1.48830000000000000000	     -8.02860756130806760000	     -5.99868084758552560000	     -7.60766934564003440000	      1.16287829798799240000	      1.00075264492509590000	     -0.32391202076802855000	     38.49895482749719400000	     12.85553699793222100000	     -5.01876405985529760000	    -19.07877720171709200000	    -17.80688571183192400000	      0.00000000000000003876	      0.00000000000000001167	     -8.56024565195424710000	      1.25286856428199540000	     -5.95978273696031910000	    -77.50386998394869000000	    -33.32192949220892300000	      0.00000000000000000563	      0.00000000000000000838	     -3.87516298331303540000	      8.95122190291485250000	    -10.27243458595261500000	    -49.26148183069941000000	    -10.73379331368646700000	    -21.98387786227469600000	     69.98899184936739500000	     59.56144114054927700000	      0.00000000000000000384	      0.00000000000000001100	    -18.96297619079980000000	    -19.96164698080301700000	      4.91831335561983970000	    136.51365028762990000000	     84.66647279093355400000	      0.00000000000000000715	      0.00000000000000001992
